<?xml version="1.0" encoding="utf-8"?>
<!-- Generator: Adobe Illustrator 17.1.0, SVG Export Plug-In . SVG Version: 6.00 Build 0)  -->
<!DOCTYPE svg PUBLIC "-//W3C//DTD SVG 1.1 Tiny//EN" "http://www.w3.org/Graphics/SVG/1.1/DTD/svg11-tiny.dtd">
<svg version="1.1" baseProfile="tiny" id="Layer_1" xmlns="http://www.w3.org/2000/svg" xmlns:xlink="http://www.w3.org/1999/xlink"
	 x="0px" y="0px" width="186.6px" height="30px" viewBox="0 0 186.6 30" xml:space="preserve">
<path fill="#6B6A6A" d="M10.2,19.2c0-1.2-1.1-1.3-3.4-1.6c-3-0.3-6.4-0.7-6.4-4.8c0-3.8,3.7-5,6.7-5c4.7,0,6.5,1.6,6.9,4.9L10,13.2
	c-0.2-1.2-0.8-2-2.8-2c-1.3,0-2.5,0.4-2.5,1.4c0,1.1,0.8,1.2,3.1,1.4c3.1,0.3,6.5,0.7,6.5,4.9c0,4-3.4,5.2-7.3,5.2
	c-4.7,0-6.8-1.7-7.1-5.1l4.1-0.5c0.2,1.6,1,2.3,3,2.3C9.1,20.8,10.2,20.5,10.2,19.2z M20.3,29.6h-4V12.4l-0.3-4.2h3.7l0.3,1.9
	c0.7-1.6,2.8-2.3,4.6-2.3c4.8,0,7.1,2.9,7.1,8.2c0,5.3-2.4,8.2-7.1,8.2c-2.3,0-3.8-0.7-4.4-2V29.6z M24,11.6c-2,0-3.4,1.3-3.7,2.6
	v3.7c0.3,1.3,1.7,2.6,3.7,2.6s3.6-1.5,3.6-4.5S26.1,11.6,24,11.6z M43.3,11.9c-3,0.1-4.9,1.8-5.3,3.2v8.7h-4V12.4l-0.3-4.2h3.7
	l0.3,2.9c0.8-1.8,2.4-3.3,5.5-3.3V11.9z M47.3,0c1.5,0,2.7,1.2,2.7,2.7c0,1.4-1.2,2.6-2.7,2.6c-1.4,0-2.6-1.2-2.6-2.6
	C44.6,1.2,45.8,0,47.3,0z M45.2,8.2h4v15.5h-4V8.2z M55.8,10.2c0.8-1.5,2.4-2.4,4.8-2.4c3.6,0,5.7,1.8,5.7,5.5v10.4h-4v-9.9
	c0-1.6-0.8-2.3-2.4-2.3c-2,0-3.5,1.4-3.9,2.6v9.6h-4V12.4l-0.3-4.2h3.7L55.8,10.2z M79.8,21.3c-0.7,1.4-2.4,2-4.4,2
	c-4.6,0-7.1-2.5-7.1-7.8s2.8-7.8,7.2-7.8c2.2,0,3.8,0.8,4.5,2.3l0.3-1.9h3.7l-0.3,4.2v11.4c0,4.3-3.2,6.2-7.7,6.2
	c-5.2,0-7.1-1.9-7.4-5l4.3-0.6c0.1,1.2,0.6,2.2,3,2.2c2.3,0,3.8-0.9,3.8-3.2V21.3z M76.1,19.6c2.1,0,3.5-1.3,3.7-2.7v-2.8
	c-0.3-1.3-1.7-2.7-3.7-2.7c-2,0-3.6,1-3.6,4.1C72.5,18.7,74,19.6,76.1,19.6z M86.6,0.3h4v23.4h-4V0.3z M92.8,16
	c0-5.4,2.9-8.2,7.6-8.2c4.7,0,7.6,2.8,7.6,8.2c0,5.4-2.9,8.2-7.6,8.2C95.8,24.1,92.8,21.4,92.8,16z M97,16c0,3.2,1.3,4.4,3.5,4.4
	c2.2,0,3.5-1.2,3.5-4.4c0-3.2-1.3-4.4-3.5-4.4C98.3,11.6,97,12.8,97,16z M125.2,12.4v7.1l0.3,4.2h-3.7l-0.3-1.8
	c-0.6,1.5-2.2,2.2-4.4,2.2c-4.6,0-7.2-2.9-7.2-8.2c0-5.3,2.5-8.2,7.2-8.2c2.3,0,3.7,0.8,4.4,2.3l0.3-1.8h3.7L125.2,12.4z
	 M121.2,14.2c-0.3-1.3-1.7-2.6-3.7-2.6c-2,0-3.5,1.4-3.5,4.4c0,3,1.4,4.4,3.5,4.4c2,0,3.5-1.3,3.7-2.6V14.2z M143,0.3v19.2l0.3,4.2
	h-3.7l-0.3-1.8c-0.6,1.5-2.3,2.2-4.5,2.2c-4.6,0-7.2-2.9-7.2-8.2c0-5.3,2.5-8.2,7.2-8.2c2.1,0,3.6,0.6,4.2,2V0.3H143z M139,14.2
	c-0.3-1.3-1.7-2.6-3.8-2.6c-2,0-3.5,1.4-3.5,4.4c0,3,1.4,4.4,3.5,4.4c2,0,3.5-1.3,3.8-2.6V14.2z"/>
<path fill="#A6CC85" d="M153.1,7.8c3.7,0,5.8,2.3,5.8,5.6c0,2.6-1.3,4.6-3.7,5.3c0.6,1.5,1.8,2.1,3.7,2.1c2.4,0,4.5-1.5,5-5.9
	c0.7-5.8,4-7.1,7.6-7.1c4,0,5.4,1.1,9.2,1.1c2.1,0,4-0.4,6-1.2c-1.4,6-6.2,11-12.8,11c-2.4,0-4.8-0.6-6.5-2.5
	c-0.7,5.2-4.2,7.8-8.5,7.8c-3.7,0-6.7-1.5-7.6-5.3c-2.5-0.7-3.9-2.7-3.9-5.4C147.3,10.2,149.4,7.8,153.1,7.8z M153.1,15.7
	c1.4,0,2.1-0.9,2.1-2.2c0-1.3-0.7-2.3-2.1-2.3c-1.3,0-2.1,0.9-2.1,2.3C151,14.8,151.7,15.7,153.1,15.7z"/>
</svg>
