<?xml version="1.0" encoding="utf-8"?>
<!-- Generator: Adobe Illustrator 17.1.0, SVG Export Plug-In . SVG Version: 6.00 Build 0)  -->
<!DOCTYPE svg PUBLIC "-//W3C//DTD SVG 1.1 Tiny//EN" "http://www.w3.org/Graphics/SVG/1.1/DTD/svg11-tiny.dtd">
<svg version="1.1" baseProfile="tiny" id="Layer_1" xmlns="http://www.w3.org/2000/svg" xmlns:xlink="http://www.w3.org/1999/xlink"
	 x="0px" y="0px" width="32px" height="32px" viewBox="0 0 32 32" overflow="visible" xml:space="preserve">
<g id="colourise">
	<path d="M15.9,5.6c2.9,2,6.1,4.2,9.1,6.2l0,0c-3.2,4.2-6.1,8.6-8.8,12.8L16,24.8c-0.5,0.2-1,0.2-1.5,0c-1-0.2-2-0.5-3-1.2
		C10.3,22.9,9,21.9,8,20.9c-0.5-0.7-0.7-1-1-1.7C7,19,7,19,7,18.7c0-0.2,0-0.5,0.2-0.7C9.9,14.2,12.6,10.1,15.9,5.6L15.9,5.6z"/>
	<path d="M26.1,10.1c-3-2-6.1-4.2-9.1-6.1c0,0,0,0,0-0.2c0.5-0.5,1-1.2,1.2-2c0.7-0.7,1.7-1,2.5-0.5c0.5,0.2,1,0.5,1.2,0.7
		c1.7,1,3.2,2.5,4.7,3.5c0.7,0.5,1,0.7,1,1.7c0,0.2,0,0.5-0.2,1C27.1,8.8,26.6,9.3,26.1,10.1L26.1,10.1z"/>
	<path d="M14.4,26.8L14.4,26.8c-0.2,0.2-0.5,0.2-0.5,0.5c-2.5,1.2-4.7,2.5-7.4,3.2c-0.5,0.2-1,0.5-1.2,0.5H5c-0.2,0-0.2,0-0.5-0.2
		c-0.2,0-0.2,0-0.2-0.5c0-0.7,0-1.5,0-2c0-1.2,0.2-2.7,0.2-3.9c0.2-1.2,0.2-2.5,0.5-3.5c0,0.5,0.5,1,1,1.5c0.7,1,1.5,1.7,2.5,2.5
		c0.7,0.7,1.7,1.2,3.5,2C12.9,27,14.4,26.8,14.4,26.8z"/>
</g>
</svg>
