<?xml version="1.0" encoding="utf-8"?>
<!-- Generator: Adobe Illustrator 17.1.0, SVG Export Plug-In . SVG Version: 6.00 Build 0)  -->
<!DOCTYPE svg PUBLIC "-//W3C//DTD SVG 1.1 Tiny//EN" "http://www.w3.org/Graphics/SVG/1.1/DTD/svg11-tiny.dtd">
<svg version="1.1" baseProfile="tiny" id="Layer_1" xmlns="http://www.w3.org/2000/svg" xmlns:xlink="http://www.w3.org/1999/xlink"
	 x="0px" y="0px" width="32px" height="32px" viewBox="0 0 32 32" overflow="visible" xml:space="preserve">
<path id="colourise" d="M27.5,16.8c-1.5,6.4-8.4,10-14.6,10c-4.9,0-9.2-1.9-12-6.2c1.5,1.3,3.4,2.2,5.4,2.2c2.2,0,4.1-0.8,5.6-2.4
	c-0.6,0-2.2-0.4-2.2-1.3c0-0.6,0.8-1.3,1.3-1.3c-1.3,0.2-2.8-0.4-3.4-1.9C8.2,15.2,8.9,15,9.8,15c-1.9-0.2-3.2-1.3-3.4-3
	c0.2-0.2,0.8-0.2,1.5-0.2h0.2C6.6,11,5.3,9.6,5.5,8V7.8c2.6,0.8,5.1,2.2,7.7,3.6c0.6,0.6,1.5,1.1,2.2,1.9c0.8-2.6,2.2-6,4.7-7.5
	c0,0.4-0.2,0.6-0.4,0.8c0.6-0.8,1.7-0.8,2.4-1.3c0,0.8-0.8,0.8-1.5,1.3c0.8-0.2,1.7-0.8,2.4-0.8c0.2,0,0.4,0,0.4,0.4
	c0,0.6-2.2,0.8-2.6,1.1c3.4-0.4,6,2.8,6.8,6c0.4,0.2,0.6,0.2,1.1,0.2c0.6,0,1.9-0.2,2.4-0.6c-0.6,1.3-2.2,1.9-3.4,2.2
	c0.6,0.4,1.7,0.4,2.4,0.4c0.4,0,0.6,0,0.8,0C30.3,16.3,29,16.8,27.5,16.8z"/>
</svg>
